# xmcd
#
# Track frame offsets: 
#        150
#        18239
#        32565
#        63033
#        82227
#        106559
#        136764
#        163398
#        202402
#
# Disc length: 3014 seconds
#
# Revision: 0
# Processed by: cddbd v1.5.2PL0 Copyright (c) Steve Scherf et al.
# Submitted via: ExactAudioCopy v0.95b4
#
DISCID=720bc409
DTITLE=Eric Clapton - 1994-11-26 - Irving Plaza 1994 - CD2
DYEAR=1994
DGENRE=Blues
TTITLE0=Someday After A While
TTITLE1=Tore Down
TTITLE2=Have You Ever Loved A Woman
TTITLE3=Crosscut Saw
TTITLE4=Five Long Years
TTITLE5=Crossroads
TTITLE6=Groaning The Blues
TTITLE7=Sweet Home Chicago
TTITLE8=Nobody's Business
EXTD=
EXTT0=
EXTT1=
EXTT2=
EXTT3=
EXTT4=
EXTT5=
EXTT6=
EXTT7=
EXTT8=
PLAYORDER=
